<mxfile host="65bd71144e">
    <diagram id="bCFKkGmKR5EhnHA2Imr-" name="ページ1">
        <mxGraphModel dx="576" dy="346" grid="1" gridSize="10" guides="1" tooltips="1" connect="1" arrows="1" fold="1" page="1" pageScale="1" pageWidth="827" pageHeight="1169" math="0" shadow="0">
            <root>
                <mxCell id="0"/>
                <mxCell id="1" parent="0"/>
                <mxCell id="3" value="" style="shape=waypoint;sketch=0;fillStyle=solid;size=6;pointerEvents=1;points=[];fillColor=none;resizable=0;rotatable=0;perimeter=centerPerimeter;snapToPoint=1;" parent="1" vertex="1">
                    <mxGeometry x="295" y="280" width="20" height="20" as="geometry"/>
                </mxCell>
                <mxCell id="5" value="" style="endArrow=classic;html=1;entryX=0.25;entryY=0;entryDx=0;entryDy=0;fontSize=9;" parent="1" target="6" edge="1">
                    <mxGeometry width="50" height="50" relative="1" as="geometry">
                        <mxPoint x="315" y="300" as="sourcePoint"/>
                        <mxPoint x="455" y="300" as="targetPoint"/>
                    </mxGeometry>
                </mxCell>
                <mxCell id="6" value="&lt;span style=&quot;color: rgb(0, 0, 0);&quot;&gt;ログイン成功&lt;/span&gt;&lt;br&gt;(クッキーなし)" style="rounded=0;whiteSpace=wrap;html=1;" parent="1" vertex="1">
                    <mxGeometry x="405" y="390" width="100" height="40" as="geometry"/>
                </mxCell>
                <mxCell id="17" value="" style="endArrow=classic;html=1;fontSize=9;exitX=0.75;exitY=1;exitDx=0;exitDy=0;" parent="1" edge="1">
                    <mxGeometry width="50" height="50" relative="1" as="geometry">
                        <mxPoint x="322.5000000000001" y="290" as="sourcePoint"/>
                        <mxPoint x="480" y="290" as="targetPoint"/>
                    </mxGeometry>
                </mxCell>
                <mxCell id="18" value="正しい情報(remember_me on)" style="text;strokeColor=none;fillColor=none;html=1;fontSize=9;fontStyle=1;verticalAlign=middle;align=center;" parent="1" vertex="1">
                    <mxGeometry x="355" y="260" width="85" height="30" as="geometry"/>
                </mxCell>
                <mxCell id="19" value="ログイン成功&lt;br&gt;(クッキー)" style="rounded=0;whiteSpace=wrap;html=1;" parent="1" vertex="1">
                    <mxGeometry x="490" y="270" width="100" height="40" as="geometry"/>
                </mxCell>
                <mxCell id="20" value="" style="endArrow=classic;html=1;fontSize=9;" parent="1" edge="1">
                    <mxGeometry width="50" height="50" relative="1" as="geometry">
                        <mxPoint x="330" y="270" as="sourcePoint"/>
                        <mxPoint x="500" y="150" as="targetPoint"/>
                    </mxGeometry>
                </mxCell>
                <mxCell id="21" value="google 画面にリダイレクト" style="rounded=0;whiteSpace=wrap;html=1;" parent="1" vertex="1">
                    <mxGeometry x="520" y="120" width="100" height="40" as="geometry"/>
                </mxCell>
                <mxCell id="22" value="google ボタン" style="text;strokeColor=none;fillColor=none;html=1;fontSize=9;fontStyle=1;verticalAlign=middle;align=center;" parent="1" vertex="1">
                    <mxGeometry x="460" y="170" width="85" height="30" as="geometry"/>
                </mxCell>
                <mxCell id="23" value="" style="endArrow=classic;html=1;exitX=0.25;exitY=1;exitDx=0;exitDy=0;" parent="1" edge="1">
                    <mxGeometry width="50" height="50" relative="1" as="geometry">
                        <mxPoint x="287.5" y="290" as="sourcePoint"/>
                        <mxPoint x="200" y="360" as="targetPoint"/>
                    </mxGeometry>
                </mxCell>
                <mxCell id="24" value="ログイン失敗" style="rounded=0;whiteSpace=wrap;html=1;" parent="1" vertex="1">
                    <mxGeometry x="100" y="370" width="100" height="40" as="geometry"/>
                </mxCell>
                <mxCell id="25" value="誤入力" style="text;strokeColor=none;fillColor=none;html=1;fontSize=9;fontStyle=1;verticalAlign=middle;align=center;" parent="1" vertex="1">
                    <mxGeometry x="225" y="340" width="80" height="30" as="geometry"/>
                </mxCell>
                <mxCell id="26" value="" style="endArrow=classic;html=1;fontSize=9;" parent="1" edge="1">
                    <mxGeometry width="50" height="50" relative="1" as="geometry">
                        <mxPoint x="320" y="260" as="sourcePoint"/>
                        <mxPoint x="340" y="120" as="targetPoint"/>
                    </mxGeometry>
                </mxCell>
                <mxCell id="27" value="会員登録画面" style="rounded=0;whiteSpace=wrap;html=1;" parent="1" vertex="1">
                    <mxGeometry x="305" y="60" width="100" height="40" as="geometry"/>
                </mxCell>
                <mxCell id="28" value="会員登録ボタン" style="text;strokeColor=none;fillColor=none;html=1;fontSize=9;fontStyle=1;verticalAlign=middle;align=center;" parent="1" vertex="1">
                    <mxGeometry x="350" y="110" width="85" height="30" as="geometry"/>
                </mxCell>
                <mxCell id="29" value="" style="endArrow=classic;html=1;fontSize=9;" parent="1" edge="1">
                    <mxGeometry width="50" height="50" relative="1" as="geometry">
                        <mxPoint x="290" y="250" as="sourcePoint"/>
                        <mxPoint x="170" y="170" as="targetPoint"/>
                    </mxGeometry>
                </mxCell>
                <mxCell id="30" value="パスワード忘れ" style="rounded=0;whiteSpace=wrap;html=1;" parent="1" vertex="1">
                    <mxGeometry x="60" y="125" width="100" height="40" as="geometry"/>
                </mxCell>
                <mxCell id="31" value="パスワード忘れボタン" style="text;strokeColor=none;fillColor=none;html=1;fontSize=9;fontStyle=1;verticalAlign=middle;align=center;" parent="1" vertex="1">
                    <mxGeometry x="180" y="130" width="85" height="30" as="geometry"/>
                </mxCell>
                <mxCell id="32" value="" style="endArrow=classic;html=1;fontSize=9;" parent="1" edge="1">
                    <mxGeometry width="50" height="50" relative="1" as="geometry">
                        <mxPoint x="277.5" y="280" as="sourcePoint"/>
                        <mxPoint x="150" y="280" as="targetPoint"/>
                    </mxGeometry>
                </mxCell>
                <mxCell id="33" value="確認メールボタン" style="text;strokeColor=none;fillColor=none;html=1;fontSize=9;fontStyle=1;verticalAlign=middle;align=center;" parent="1" vertex="1">
                    <mxGeometry x="160" y="280" width="85" height="30" as="geometry"/>
                </mxCell>
                <mxCell id="34" value="確認メール" style="rounded=0;whiteSpace=wrap;html=1;" parent="1" vertex="1">
                    <mxGeometry x="30" y="260" width="100" height="40" as="geometry"/>
                </mxCell>
                <mxCell id="41" value="&lt;span style=&quot;color: rgb(0, 0, 0);&quot;&gt;正しい情報&lt;/span&gt;(remember_me off)" style="text;strokeColor=none;fillColor=none;html=1;fontSize=9;fontStyle=1;verticalAlign=middle;align=center;" parent="1" vertex="1">
                    <mxGeometry x="420" y="340" width="85" height="30" as="geometry"/>
                </mxCell>
                <mxCell id="44" value="" style="endArrow=classic;html=1;fontSize=9;" parent="1" edge="1">
                    <mxGeometry width="50" height="50" relative="1" as="geometry">
                        <mxPoint x="220" y="410" as="sourcePoint"/>
                        <mxPoint x="390" y="420" as="targetPoint"/>
                    </mxGeometry>
                </mxCell>
                <mxCell id="45" value="&lt;span style=&quot;color: rgb(0, 0, 0);&quot;&gt;正しい情報&lt;/span&gt;(remember_me off)" style="text;strokeColor=none;fillColor=none;html=1;fontSize=9;fontStyle=1;verticalAlign=middle;align=center;" parent="1" vertex="1">
                    <mxGeometry x="240" y="430" width="85" height="30" as="geometry"/>
                </mxCell>
                <mxCell id="46" value="" style="endArrow=classic;html=1;fontSize=9;entryX=0;entryY=1;entryDx=0;entryDy=0;" parent="1" target="19" edge="1">
                    <mxGeometry width="50" height="50" relative="1" as="geometry">
                        <mxPoint x="210" y="390" as="sourcePoint"/>
                        <mxPoint x="380" y="400" as="targetPoint"/>
                    </mxGeometry>
                </mxCell>
                <mxCell id="47" value="正しい情報(remember_me on)" style="text;strokeColor=none;fillColor=none;html=1;fontSize=9;fontStyle=1;verticalAlign=middle;align=center;rotation=-15;" parent="1" vertex="1">
                    <mxGeometry x="355" y="300" width="85" height="30" as="geometry"/>
                </mxCell>
            </root>
        </mxGraphModel>
    </diagram>
</mxfile>